<svg xmlns="http://www.w3.org/2000/svg" viewBox="0 0 1200 545" font-family="system-ui, -apple-system, Segoe UI, Roboto, sans-serif">
<rect width="1200" height="545" rx="28" fill="#fbf9fc"/>
<text x="600" y="58" font-family="system-ui, -apple-system, Segoe UI, Roboto, sans-serif" font-size="34" font-weight="780" fill="#15131a" text-anchor="middle">Goalrail Architecture</text>
<text x="600" y="88" font-family="system-ui, -apple-system, Segoe UI, Roboto, sans-serif" font-size="16" font-weight="500" fill="#5c5765" text-anchor="middle">One control layer for agents, policies, shared history, and every client surface.</text>
<rect x="70" y="150" width="230" height="118" rx="20" ry="20" fill="#ffffff" stroke="#ece8ee" stroke-width="2"/><text x="185.0" y="185" font-family="system-ui, -apple-system, Segoe UI, Roboto, sans-serif" font-size="20" font-weight="750" fill="#15131a" text-anchor="middle">Agents</text><text x="185.0" y="216" font-family="system-ui, -apple-system, Segoe UI, Roboto, sans-serif" font-size="15" font-weight="500" fill="#5c5765" text-anchor="middle">Claude Code</text><text x="185.0" y="240" font-family="system-ui, -apple-system, Segoe UI, Roboto, sans-serif" font-size="15" font-weight="500" fill="#5c5765" text-anchor="middle">Codex</text><text x="185.0" y="264" font-family="system-ui, -apple-system, Segoe UI, Roboto, sans-serif" font-size="15" font-weight="500" fill="#5c5765" text-anchor="middle">Pi</text><text x="185.0" y="288" font-family="system-ui, -apple-system, Segoe UI, Roboto, sans-serif" font-size="15" font-weight="500" fill="#5c5765" text-anchor="middle">Custom agents</text>
<rect x="330" y="150" width="230" height="118" rx="20" ry="20" fill="#ffffff" stroke="#ece8ee" stroke-width="2"/><text x="445.0" y="185" font-family="system-ui, -apple-system, Segoe UI, Roboto, sans-serif" font-size="20" font-weight="750" fill="#15131a" text-anchor="middle">Runner</text><text x="445.0" y="216" font-family="system-ui, -apple-system, Segoe UI, Roboto, sans-serif" font-size="15" font-weight="500" fill="#5c5765" text-anchor="middle">Sandbox boundary</text><text x="445.0" y="240" font-family="system-ui, -apple-system, Segoe UI, Roboto, sans-serif" font-size="15" font-weight="500" fill="#5c5765" text-anchor="middle">Harness adapters</text><text x="445.0" y="264" font-family="system-ui, -apple-system, Segoe UI, Roboto, sans-serif" font-size="15" font-weight="500" fill="#5c5765" text-anchor="middle">Tool mediation</text>
<rect x="590" y="128" width="250" height="162" rx="24" ry="24" fill="#ffffff" stroke="#ece8ee" stroke-width="2"/>

<g transform="translate(616 154) scale(0.82)">
  <rect x="0" y="0" width="56" height="56" rx="15" fill="#17151D" stroke="#5E6678" stroke-width="2"/>
  <path d="M14 19H27C34.18 19 40 24.82 40 32C40 39.18 34.18 45 27 45H18" stroke="#F4F2F7" stroke-width="5" stroke-linecap="round"/>
  <path d="M17 32H31" stroke="#F4F2F7" stroke-width="5" stroke-linecap="round"/>
  <path d="M26 23L35 32L26 41" stroke="#92d3b5" stroke-width="5" stroke-linecap="round" stroke-linejoin="round"/>
</g>
<text x="736" y="184" font-family="system-ui, -apple-system, Segoe UI, Roboto, sans-serif" font-size="24" font-weight="780" fill="#15131a" text-anchor="middle">Server</text>
<rect x="622" y="210" width="90" height="34" rx="17" fill="#ed1c9c"/><text x="667.0" y="232" font-family="system-ui, -apple-system, Segoe UI, Roboto, sans-serif" font-size="14" font-weight="650" fill="#ffffff" text-anchor="middle">Policies</text>
<rect x="722" y="210" width="90" height="34" rx="17" fill="#ed1c9c"/><text x="767.0" y="232" font-family="system-ui, -apple-system, Segoe UI, Roboto, sans-serif" font-size="14" font-weight="650" fill="#ffffff" text-anchor="middle">History</text>
<rect x="622" y="252" width="90" height="34" rx="17" fill="#fff0f8"/><text x="667.0" y="274" font-family="system-ui, -apple-system, Segoe UI, Roboto, sans-serif" font-size="14" font-weight="650" fill="#15131a" text-anchor="middle">Catalog</text>
<rect x="722" y="252" width="90" height="34" rx="17" fill="#fff0f8"/><text x="767.0" y="274" font-family="system-ui, -apple-system, Segoe UI, Roboto, sans-serif" font-size="14" font-weight="650" fill="#15131a" text-anchor="middle">MCPs</text>
<rect x="900" y="110" width="230" height="118" rx="20" ry="20" fill="#ffffff" stroke="#ece8ee" stroke-width="2"/><text x="1015.0" y="145" font-family="system-ui, -apple-system, Segoe UI, Roboto, sans-serif" font-size="20" font-weight="750" fill="#15131a" text-anchor="middle">Clients</text><text x="1015.0" y="176" font-family="system-ui, -apple-system, Segoe UI, Roboto, sans-serif" font-size="15" font-weight="500" fill="#5c5765" text-anchor="middle">Terminal</text><text x="1015.0" y="200" font-family="system-ui, -apple-system, Segoe UI, Roboto, sans-serif" font-size="15" font-weight="500" fill="#5c5765" text-anchor="middle">Web</text><text x="1015.0" y="224" font-family="system-ui, -apple-system, Segoe UI, Roboto, sans-serif" font-size="15" font-weight="500" fill="#5c5765" text-anchor="middle">Desktop</text><text x="1015.0" y="248" font-family="system-ui, -apple-system, Segoe UI, Roboto, sans-serif" font-size="15" font-weight="500" fill="#5c5765" text-anchor="middle">Mobile</text><text x="1015.0" y="272" font-family="system-ui, -apple-system, Segoe UI, Roboto, sans-serif" font-size="15" font-weight="500" fill="#5c5765" text-anchor="middle">REST API</text>
<rect x="330" y="360" width="180" height="92" rx="18" ry="18" fill="#ffffff" stroke="#ece8ee" stroke-width="2"/>
<text x="420" y="396" font-family="system-ui, -apple-system, Segoe UI, Roboto, sans-serif" font-size="20" font-weight="750" fill="#15131a" text-anchor="middle">Hosts</text>
<text x="420" y="424" font-family="system-ui, -apple-system, Segoe UI, Roboto, sans-serif" font-size="15" font-weight="500" fill="#5c5765" text-anchor="middle">Local / Modal / Daytona</text>
<rect x="590" y="348" width="250" height="118" rx="20" ry="20" fill="#ffffff" stroke="#ece8ee" stroke-width="2"/>
<text x="715" y="383" font-family="system-ui, -apple-system, Segoe UI, Roboto, sans-serif" font-size="20" font-weight="750" fill="#15131a" text-anchor="middle">Persistence</text>
<text x="715" y="414" font-family="system-ui, -apple-system, Segoe UI, Roboto, sans-serif" font-size="15" font-weight="500" fill="#5c5765" text-anchor="middle">PostgreSQL, object storage,</text>
<text x="715" y="438" font-family="system-ui, -apple-system, Segoe UI, Roboto, sans-serif" font-size="15" font-weight="500" fill="#5c5765" text-anchor="middle">traces, artifacts</text>
<path d="M300 210 C 315.0 210, 315.0 210, 330 210" stroke="#ed1c9c" stroke-width="2.4" fill="none" stroke-linecap="round" stroke-dasharray="1 8"/>
<path d="M560 210 C 575.0 210, 575.0 210, 590 210" stroke="#ed1c9c" stroke-width="2.4" fill="none" stroke-linecap="round" stroke-dasharray="1 8"/>
<path d="M840 210 C 870.0 210, 870.0 210, 900 210" stroke="#ed1c9c" stroke-width="2.4" fill="none" stroke-linecap="round" stroke-dasharray="1 8"/>
<path d="M450 268 C 435.0 268, 435.0 360, 420 360" stroke="#ed1c9c" stroke-width="2.4" fill="none" stroke-linecap="round" stroke-dasharray="1 8"/>
<path d="M715 290 C 715.0 290, 715.0 348, 715 348" stroke="#ed1c9c" stroke-width="2.4" fill="none" stroke-linecap="round" stroke-dasharray="1 8"/>

<g transform="translate(91 32) scale(0.52)">
  <rect x="0" y="0" width="56" height="56" rx="15" fill="#17151D" stroke="#5E6678" stroke-width="2"/>
  <path d="M14 19H27C34.18 19 40 24.82 40 32C40 39.18 34.18 45 27 45H18" stroke="#F4F2F7" stroke-width="5" stroke-linecap="round"/>
  <path d="M17 32H31" stroke="#F4F2F7" stroke-width="5" stroke-linecap="round"/>
  <path d="M26 23L35 32L26 41" stroke="#92d3b5" stroke-width="5" stroke-linecap="round" stroke-linejoin="round"/>
</g>
<text x="143" y="60" font-family="system-ui, -apple-system, Segoe UI, Roboto, sans-serif" font-size="22" font-weight="780" fill="#15131a" text-anchor="start">Goalrail</text>
</svg>
