<svg width="1280" height="760" viewBox="0 0 1280 760" fill="none" xmlns="http://www.w3.org/2000/svg">
  <rect width="1280" height="760" rx="36" fill="#101017"/>
  <rect x="52" y="48" width="1176" height="664" rx="30" fill="#17151D" stroke="#454957" stroke-width="2"/>
  <rect x="52" y="48" width="1176" height="54" rx="30" fill="#20202A"/>
  <circle cx="86" cy="75" r="9" fill="#FF6B6B"/>
  <circle cx="114" cy="75" r="9" fill="#FFD166"/>
  <circle cx="142" cy="75" r="9" fill="#5DD39E"/>
  <text x="640" y="82" text-anchor="middle" font-family="Inter, system-ui, sans-serif" font-size="17" font-weight="650" fill="#D7D4DE">Goalrail shared session</text>
  <rect x="72" y="124" width="275" height="568" rx="22" fill="#211E31" stroke="#393446"/>
  <rect x="98" y="151" width="42" height="42" rx="12" fill="#17151D" stroke="#5E6678" stroke-width="2"/>
  <path d="M109 166H120C126.627 166 132 171.373 132 178C132 184.627 126.627 190 120 190H113" stroke="#F4F2F7" stroke-width="4" stroke-linecap="round"/>
  <path d="M112 178H124" stroke="#F4F2F7" stroke-width="4" stroke-linecap="round"/>
  <path d="M120 169L129 178L120 187" stroke="#92D3B5" stroke-width="4" stroke-linecap="round" stroke-linejoin="round"/>
  <text x="154" y="178" font-family="Inter, system-ui, sans-serif" font-size="24" font-weight="760" fill="#F4F2F7">Goalrail</text>
  <text x="98" y="239" font-family="Inter, system-ui, sans-serif" font-size="17" fill="#A8A4B4">Sessions</text>
  <rect x="98" y="259" width="219" height="54" rx="14" fill="#3A334D"/>
  <text x="118" y="292" font-family="Inter, system-ui, sans-serif" font-size="18" font-weight="650" fill="#FFFFFF">Review release branch</text>
  <rect x="98" y="331" width="219" height="48" rx="14" fill="#262335"/>
  <text x="118" y="361" font-family="Inter, system-ui, sans-serif" font-size="16" fill="#C8C3D4">Repair local setup</text>
  <rect x="98" y="397" width="219" height="48" rx="14" fill="#262335"/>
  <text x="118" y="427" font-family="Inter, system-ui, sans-serif" font-size="16" fill="#C8C3D4">Draft product note</text>
  <rect x="376" y="124" width="526" height="568" rx="22" fill="#14141D" stroke="#393446"/>
  <text x="412" y="171" font-family="Inter, system-ui, sans-serif" font-size="20" font-weight="700" fill="#F4F2F7">Release branch review</text>
  <rect x="412" y="205" width="418" height="84" rx="18" fill="#272438"/>
  <text x="438" y="239" font-family="Inter, system-ui, sans-serif" font-size="18" font-weight="650" fill="#FFFFFF">Run parallel review and test plan</text>
  <text x="438" y="267" font-family="Inter, system-ui, sans-serif" font-size="15" fill="#AAA5B8">Keep network off unless a policy allows it.</text>
  <rect x="412" y="320" width="454" height="116" rx="20" fill="#1E1E29" stroke="#393446"/>
  <text x="438" y="354" font-family="Inter, system-ui, sans-serif" font-size="16" fill="#BFBACC">Agent A</text>
  <text x="438" y="388" font-family="Inter, system-ui, sans-serif" font-size="24" font-weight="720" fill="#F4F2F7">Found 3 risk points</text>
  <text x="438" y="416" font-family="Inter, system-ui, sans-serif" font-size="15" fill="#AAA5B8">Auth, installer, desktop packaging</text>
  <rect x="412" y="462" width="454" height="116" rx="20" fill="#1E1E29" stroke="#393446"/>
  <text x="438" y="496" font-family="Inter, system-ui, sans-serif" font-size="16" fill="#BFBACC">Agent B</text>
  <text x="438" y="530" font-family="Inter, system-ui, sans-serif" font-size="24" font-weight="720" fill="#F4F2F7">Tests scoped to touched flows</text>
  <text x="438" y="558" font-family="Inter, system-ui, sans-serif" font-size="15" fill="#AAA5B8">No broad refactor required</text>
  <rect x="928" y="124" width="280" height="568" rx="22" fill="#211E31" stroke="#393446"/>
  <text x="959" y="171" font-family="Inter, system-ui, sans-serif" font-size="20" font-weight="720" fill="#F4F2F7">Policy rail</text>
  <rect x="959" y="210" width="218" height="72" rx="18" fill="#2C2940"/>
  <text x="982" y="242" font-family="Inter, system-ui, sans-serif" font-size="16" fill="#BFBACC">Budget</text>
  <rect x="982" y="256" width="150" height="8" rx="4" fill="#393446"/>
  <rect x="982" y="256" width="96" height="8" rx="4" fill="#92D3B5"/>
  <rect x="959" y="306" width="218" height="72" rx="18" fill="#2C2940"/>
  <text x="982" y="339" font-family="Inter, system-ui, sans-serif" font-size="16" fill="#BFBACC">Filesystem</text>
  <text x="1092" y="339" font-family="Inter, system-ui, sans-serif" font-size="16" font-weight="700" fill="#92D3B5">limited</text>
  <rect x="959" y="402" width="218" height="72" rx="18" fill="#2C2940"/>
  <text x="982" y="435" font-family="Inter, system-ui, sans-serif" font-size="16" fill="#BFBACC">Network</text>
  <text x="1108" y="435" font-family="Inter, system-ui, sans-serif" font-size="16" font-weight="700" fill="#ED1C9C">ask</text>
  <rect x="959" y="522" width="218" height="86" rx="18" fill="#17151D" stroke="#3E3A4F"/>
  <text x="982" y="557" font-family="Inter, system-ui, sans-serif" font-size="17" font-weight="700" fill="#F4F2F7">2 agents active</text>
  <text x="982" y="586" font-family="Inter, system-ui, sans-serif" font-size="15" fill="#AAA5B8">Shared history synced</text>
</svg>
