<svg width="1280" height="720" viewBox="0 0 1280 720" fill="none" xmlns="http://www.w3.org/2000/svg">
  <rect width="1280" height="720" rx="32" fill="#FBF9FC"/>
  <rect x="54" y="52" width="1172" height="616" rx="30" fill="#FFFFFF" stroke="#E7E1EA" stroke-width="2"/>
  <text x="96" y="116" font-family="Inter, system-ui, sans-serif" font-size="30" font-weight="760" fill="#15131A">One session, many agents</text>
  <text x="96" y="154" font-family="Inter, system-ui, sans-serif" font-size="18" fill="#5C5765">Goalrail coordinates harnesses, model routes, tools, and outputs behind one workflow.</text>
  <rect x="96" y="206" width="315" height="112" rx="22" fill="#17151D"/>
  <text x="128" y="252" font-family="Inter, system-ui, sans-serif" font-size="20" fill="#F4F2F7">Request</text>
  <text x="128" y="286" font-family="Inter, system-ui, sans-serif" font-size="24" font-weight="720" fill="#FFFFFF">Review release branch</text>
  <path d="M431 262H548" stroke="#ED1C9C" stroke-width="4" stroke-linecap="round" stroke-dasharray="2 12"/>
  <path d="M538 246L558 262L538 278" stroke="#ED1C9C" stroke-width="4" stroke-linecap="round" stroke-linejoin="round"/>
  <rect x="582" y="180" width="254" height="126" rx="24" fill="#FFF0F8" stroke="#F7C7E5"/>
  <text x="614" y="226" font-family="Inter, system-ui, sans-serif" font-size="18" fill="#5C5765">Agent A</text>
  <text x="614" y="264" font-family="Inter, system-ui, sans-serif" font-size="25" font-weight="740" fill="#15131A">Code review</text>
  <rect x="582" y="338" width="254" height="126" rx="24" fill="#EFFAF5" stroke="#C7E8D9"/>
  <text x="614" y="384" font-family="Inter, system-ui, sans-serif" font-size="18" fill="#5C5765">Agent B</text>
  <text x="614" y="422" font-family="Inter, system-ui, sans-serif" font-size="25" font-weight="740" fill="#15131A">Test plan</text>
  <path d="M850 243H970" stroke="#ED1C9C" stroke-width="4" stroke-linecap="round" stroke-dasharray="2 12"/>
  <path d="M850 401H970" stroke="#ED1C9C" stroke-width="4" stroke-linecap="round" stroke-dasharray="2 12"/>
  <path d="M960 227L980 243L960 259" stroke="#ED1C9C" stroke-width="4" stroke-linecap="round" stroke-linejoin="round"/>
  <path d="M960 385L980 401L960 417" stroke="#ED1C9C" stroke-width="4" stroke-linecap="round" stroke-linejoin="round"/>
  <rect x="1002" y="238" width="182" height="168" rx="26" fill="#17151D"/>
  <text x="1093" y="296" text-anchor="middle" font-family="Inter, system-ui, sans-serif" font-size="20" fill="#F4F2F7">Result</text>
  <text x="1093" y="336" text-anchor="middle" font-family="Inter, system-ui, sans-serif" font-size="28" font-weight="760" fill="#FFFFFF">Merged verdict</text>
  <rect x="1034" y="358" width="118" height="18" rx="9" fill="#92D3B5"/>
  <rect x="96" y="534" width="1088" height="78" rx="22" fill="#F6F3F7"/>
  <text x="128" y="582" font-family="Inter, system-ui, sans-serif" font-size="20" font-weight="650" fill="#15131A">Claude Code, Codex, Pi, and custom agents stay swappable at the harness layer.</text>
</svg>
