<svg width="1280" height="820" viewBox="0 0 1280 820" fill="none" xmlns="http://www.w3.org/2000/svg">
  <rect width="1280" height="820" rx="32" fill="#111018"/>
  <rect x="124" y="84" width="1032" height="652" rx="28" fill="#1B1825" stroke="#464050" stroke-width="2"/>
  <rect x="124" y="84" width="1032" height="58" rx="28" fill="#24202F"/>
  <circle cx="162" cy="113" r="8" fill="#FF6B6B"/>
  <circle cx="190" cy="113" r="8" fill="#FFD166"/>
  <circle cx="218" cy="113" r="8" fill="#5DD39E"/>
  <text x="640" y="120" text-anchor="middle" font-family="Inter, Arial, sans-serif" font-size="17" font-weight="700" fill="#F4F2F7">Goalrail</text>
  <rect x="468" y="228" width="344" height="344" rx="28" fill="#211E31" stroke="#494254" stroke-width="2"/>
  <g transform="translate(584 272) scale(2)">
    <rect x="0.8" y="0.8" width="54.4" height="54.4" rx="14.5" fill="#1B1C22" stroke="#2F323B" stroke-width="1.6"/>
    <rect x="4" y="4" width="48" height="48" rx="12.5" fill="none" stroke="#DADCE3" stroke-width="2.2" opacity="0.75"/>
    <rect x="7" y="7" width="42" height="42" rx="10.5" fill="none" stroke="#6F7480" stroke-width="1.2" opacity="0.75"/>
    <path d="M37 15H25C16.7 15 10 21.7 10 30C10 38.3 16.7 45 25 45H37" stroke="#E4E5EA" stroke-width="4.5" stroke-linecap="round"/>
    <path d="M25 30H42C47 30 51 34 51 39C51 44 47 48 42 48H32" stroke="#E4E5EA" stroke-width="4.5" stroke-linecap="round"/>
    <path d="M41 48L50 55" stroke="#E4E5EA" stroke-width="4.5" stroke-linecap="round" stroke-linejoin="round"/>
  </g>
  <text x="640" y="432" text-anchor="middle" font-family="Inter, Arial, sans-serif" font-size="28" font-weight="780" fill="#F4F2F7">Connect to Goalrail</text>
  <text x="640" y="466" text-anchor="middle" font-family="Inter, Arial, sans-serif" font-size="16" fill="#A8A4B4">Enter your server URL</text>
  <rect x="512" y="498" width="256" height="48" rx="14" fill="#17151D" stroke="#5E6678"/>
  <text x="536" y="528" font-family="Inter, Arial, sans-serif" font-size="15" fill="#F4F2F7">http://localhost:6767</text>
  <rect x="584" y="570" width="112" height="42" rx="14" fill="#92D3B5"/>
  <text x="640" y="597" text-anchor="middle" font-family="Inter, Arial, sans-serif" font-size="15" font-weight="760" fill="#17151D">Connect</text>
  <text x="640" y="654" text-anchor="middle" font-family="Inter, Arial, sans-serif" font-size="15" fill="#A8A4B4">Need a public server? Use https://goalrail.dev</text>
</svg>
