<svg width="1100" height="756" viewBox="0 0 1100 756" fill="none" xmlns="http://www.w3.org/2000/svg">
  <rect width="1100" height="756" rx="18" fill="#111018"/>
  <rect x="40" y="40" width="1020" height="676" rx="24" fill="#17151D" stroke="#454052" stroke-width="2"/>
  <text x="80" y="94" font-family="Inter, Arial, sans-serif" font-size="22" font-weight="780" fill="#F4F2F7">Goalrail policy setup</text>
  <rect x="80" y="132" width="612" height="500" rx="20" fill="#211E31" stroke="#494254"/>
  <text x="116" y="184" font-family="Inter, Arial, sans-serif" font-size="26" font-weight="780" fill="#F4F2F7">Add policy</text>
  <text x="116" y="218" font-family="Inter, Arial, sans-serif" font-size="16" fill="#A8A4B4">Choose a guardrail for this session.</text>
  <rect x="116" y="258" width="540" height="96" rx="18" fill="#17151D" stroke="#5E6678"/>
  <text x="144" y="296" font-family="Inter, Arial, sans-serif" font-size="18" font-weight="760" fill="#F4F2F7">Session Cost Budget</text>
  <text x="144" y="326" font-family="Inter, Arial, sans-serif" font-size="14" fill="#A8A4B4">Warn, ask, or block based on cumulative model spend.</text>
  <text x="116" y="402" font-family="Inter, Arial, sans-serif" font-size="15" font-weight="700" fill="#F4F2F7">Soft warning threshold</text>
  <rect x="116" y="420" width="248" height="46" rx="12" fill="#111018" stroke="#5E6678"/>
  <text x="138" y="449" font-family="Inter, Arial, sans-serif" font-size="15" fill="#F4F2F7">0.01 USD</text>
  <text x="116" y="512" font-family="Inter, Arial, sans-serif" font-size="15" font-weight="700" fill="#F4F2F7">Hard limit</text>
  <rect x="116" y="530" width="248" height="46" rx="12" fill="#111018" stroke="#5E6678"/>
  <text x="138" y="559" font-family="Inter, Arial, sans-serif" font-size="15" fill="#F4F2F7">0.20 USD</text>
  <rect x="526" y="584" width="130" height="42" rx="14" fill="#92D3B5"/>
  <text x="591" y="611" text-anchor="middle" font-family="Inter, Arial, sans-serif" font-size="15" font-weight="760" fill="#17151D">Add</text>
  <rect x="742" y="132" width="278" height="500" rx="20" fill="#211E31" stroke="#494254"/>
  <text x="774" y="184" font-family="Inter, Arial, sans-serif" font-size="20" font-weight="760" fill="#F4F2F7">Session panel</text>
  <rect x="774" y="226" width="214" height="84" rx="16" fill="#17151D"/>
  <text x="798" y="260" font-family="Inter, Arial, sans-serif" font-size="15" fill="#A8A4B4">Current cost</text>
  <text x="798" y="290" font-family="Inter, Arial, sans-serif" font-size="22" font-weight="780" fill="#F4F2F7">$0.007</text>
  <rect x="774" y="346" width="214" height="84" rx="16" fill="#17151D"/>
  <text x="798" y="380" font-family="Inter, Arial, sans-serif" font-size="15" fill="#A8A4B4">Policies</text>
  <text x="798" y="410" font-family="Inter, Arial, sans-serif" font-size="16" font-weight="700" fill="#92D3B5">Session Cost Budget</text>
</svg>
