<svg width="1280" height="820" viewBox="0 0 1280 820" fill="none" xmlns="http://www.w3.org/2000/svg">
  <rect width="1280" height="820" rx="32" fill="#111018"/>
  <rect x="44" y="40" width="1192" height="740" rx="28" fill="#1A1724" stroke="#464050" stroke-width="2"/>
  <rect x="44" y="40" width="1192" height="58" rx="28" fill="#24202F"/>
  <circle cx="82" cy="69" r="8" fill="#FF6B6B"/>
  <circle cx="110" cy="69" r="8" fill="#FFD166"/>
  <circle cx="138" cy="69" r="8" fill="#5DD39E"/>
  <text x="640" y="76" text-anchor="middle" font-family="Inter, Arial, sans-serif" font-size="17" font-weight="700" fill="#F4F2F7">Goalrail Desktop</text>
  <rect x="68" y="120" width="260" height="636" rx="20" fill="#241F35"/>
  <text x="96" y="164" font-family="Inter, Arial, sans-serif" font-size="23" font-weight="780" fill="#F4F2F7">Goalrail</text>
  <text x="96" y="211" font-family="Inter, Arial, sans-serif" font-size="15" fill="#A8A4B4">Connected to http://localhost:6767</text>
  <rect x="92" y="244" width="212" height="52" rx="14" fill="#3A334D"/>
  <text x="114" y="277" font-family="Inter, Arial, sans-serif" font-size="16" font-weight="700" fill="#FFFFFF">Release review</text>
  <rect x="92" y="314" width="212" height="48" rx="14" fill="#2B273A"/>
  <text x="114" y="344" font-family="Inter, Arial, sans-serif" font-size="15" fill="#CAC5D7">Installer check</text>
  <rect x="92" y="380" width="212" height="48" rx="14" fill="#2B273A"/>
  <text x="114" y="410" font-family="Inter, Arial, sans-serif" font-size="15" fill="#CAC5D7">Desktop build</text>
  <rect x="360" y="120" width="536" height="636" rx="20" fill="#15141D" stroke="#3D374B"/>
  <text x="396" y="170" font-family="Inter, Arial, sans-serif" font-size="22" font-weight="750" fill="#F4F2F7">Agent conversation</text>
  <rect x="396" y="210" width="330" height="68" rx="18" fill="#2E293C"/>
  <text x="420" y="250" font-family="Inter, Arial, sans-serif" font-size="17" fill="#F4F2F7">Build the desktop app locally.</text>
  <rect x="476" y="310" width="352" height="110" rx="20" fill="#211E31" stroke="#454052"/>
  <text x="506" y="348" font-family="Inter, Arial, sans-serif" font-size="16" font-weight="700" fill="#92D3B5">Goalrail</text>
  <text x="506" y="380" font-family="Inter, Arial, sans-serif" font-size="17" fill="#F4F2F7">Build finished. Installer is ready.</text>
  <text x="506" y="410" font-family="Inter, Arial, sans-serif" font-size="14" fill="#A8A4B4">No old branding in app assets.</text>
  <rect x="396" y="620" width="452" height="82" rx="20" fill="#24202F" stroke="#494254"/>
  <text x="426" y="668" font-family="Inter, Arial, sans-serif" font-size="17" fill="#A8A4B4">Ask the agent anything...</text>
  <circle cx="808" cy="661" r="20" fill="#92D3B5"/>
  <path d="M800 661H816M816 661L809 654M816 661L809 668" stroke="#17151D" stroke-width="3" stroke-linecap="round" stroke-linejoin="round"/>
  <rect x="928" y="120" width="284" height="636" rx="20" fill="#211E31" stroke="#3D374B"/>
  <text x="958" y="170" font-family="Inter, Arial, sans-serif" font-size="20" font-weight="750" fill="#F4F2F7">Workspace</text>
  <rect x="958" y="202" width="224" height="42" rx="12" fill="#302B41"/>
  <text x="978" y="228" font-family="Inter, Arial, sans-serif" font-size="14" fill="#CAC5D7">Files</text>
  <text x="958" y="292" font-family="Inter, Arial, sans-serif" font-size="15" fill="#F4F2F7">src/main.ts</text>
  <text x="958" y="334" font-family="Inter, Arial, sans-serif" font-size="15" fill="#F4F2F7">app/App.tsx</text>
  <text x="958" y="376" font-family="Inter, Arial, sans-serif" font-size="15" fill="#F4F2F7">package.json</text>
  <rect x="958" y="444" width="224" height="100" rx="16" fill="#17151D" stroke="#454052"/>
  <text x="982" y="479" font-family="Inter, Arial, sans-serif" font-size="15" font-weight="700" fill="#F4F2F7">Status</text>
  <text x="982" y="510" font-family="Inter, Arial, sans-serif" font-size="14" fill="#92D3B5">Connected</text>
</svg>
