<svg width="970" height="668" viewBox="0 0 970 668" fill="none" xmlns="http://www.w3.org/2000/svg">
  <rect width="970" height="668" rx="18" fill="#FFFFFF"/>
  <rect x="18" y="18" width="934" height="632" rx="18" fill="#FCFBFE" stroke="#E4DFEA" stroke-width="2"/>
  <rect x="18" y="18" width="934" height="54" rx="18" fill="#17151D"/>
  <text x="48" y="52" font-family="Inter, Arial, sans-serif" font-size="17" font-weight="760" fill="#F4F2F7">Goalrail comments</text>
  <rect x="56" y="112" width="562" height="430" rx="18" fill="#FFFFFF" stroke="#E4DFEA"/>
  <text x="92" y="164" font-family="Inter, Arial, sans-serif" font-size="18" font-weight="700" fill="#17151D">Agent draft</text>
  <text x="92" y="214" font-family="Inter, Arial, sans-serif" font-size="17" fill="#332D40">The release is ready. The installer path has been tested.</text>
  <rect x="92" y="246" width="430" height="36" rx="10" fill="#FFF7D6"/>
  <text x="108" y="270" font-family="Inter, Arial, sans-serif" font-size="16" fill="#332D40">Risk remains around desktop notarization.</text>
  <text x="92" y="326" font-family="Inter, Arial, sans-serif" font-size="17" fill="#332D40">Goalrail keeps the comment pinned to this exact line.</text>
  <rect x="678" y="154" width="232" height="182" rx="18" fill="#211E31" stroke="#494254" stroke-width="2"/>
  <text x="704" y="194" font-family="Inter, Arial, sans-serif" font-size="15" font-weight="700" fill="#92D3B5">Inline comment</text>
  <text x="704" y="232" font-family="Inter, Arial, sans-serif" font-size="16" fill="#F4F2F7">Clarify what was tested</text>
  <text x="704" y="262" font-family="Inter, Arial, sans-serif" font-size="14" fill="#A8A4B4">The agent receives the selected context and revises in place.</text>
  <path d="M678 246C636 246 626 264 618 264" stroke="#92D3B5" stroke-width="3" stroke-linecap="round"/>
  <rect x="92" y="574" width="744" height="48" rx="14" fill="#FFFFFF" stroke="#DDD6E5" stroke-width="2"/>
  <text x="116" y="604" font-family="Inter, Arial, sans-serif" font-size="15" fill="#7D7689">Ask Goalrail to address selected comments...</text>
</svg>
